<svg xmlns="http://www.w3.org/2000/svg" viewBox="0 0 64 64" fill="none">
  <rect x="6" y="6" width="52" height="52" rx="15" fill="url(#bg)" />
  <path
    fill="#F8FAFC"
    d="M20 18.5C20 16.567 21.567 15 23.5 15H40.5C42.433 15 44 16.567 44 18.5C44 20.433 42.433 22 40.5 22H27V28H36.5C38.433 28 40 29.567 40 31.5C40 33.433 38.433 35 36.5 35H27V45.5C27 47.433 25.433 49 23.5 49C21.567 49 20 47.433 20 45.5V18.5Z"
  />
  <path
    d="M37 39.5L42 44.5L51 33.5"
    stroke="#F59E0B"
    stroke-width="5"
    stroke-linecap="round"
    stroke-linejoin="round"
  />
  <defs>
    <linearGradient id="bg" x1="11" y1="10" x2="53" y2="54" gradientUnits="userSpaceOnUse">
      <stop stop-color="#0F172A" />
      <stop offset="1" stop-color="#1E293B" />
    </linearGradient>
  </defs>
</svg>